<svg version="1.1" width="512" height="444" xmlns="http://www.w3.org/2000/svg">
<g>
<polygon points="144.0,304.8409421321224 128.0,332.55375505322445 160.0,332.55375505322445" stroke="black" fill="yellow"/>
<polygon points="160.0,332.55375505322445 192.0,332.55375505322445 176.0,304.8409421321224" stroke="black" fill="yellow"/>
<polygon points="176.0,304.8409421321224 160.0,277.12812921102034 144.0,304.8409421321224" stroke="black" fill="yellow"/>
<polygon points="128.0,277.12812921102034 160.0,277.12812921102034 144.0,249.4153162899183" stroke="black" fill="yellow"/>
<polygon points="144.0,249.4153162899183 128.0,221.70250336881628 112.0,249.4153162899183" stroke="black" fill="yellow"/>
<polygon points="112.0,249.4153162899183 96.0,277.12812921102034 128.0,277.12812921102034" stroke="black" fill="yellow"/>
<polygon points="112.0,304.8409421321224 96.0,277.12812921102034 80.0,304.8409421321224" stroke="black" fill="yellow"/>
<polygon points="80.0,304.8409421321224 64.0,332.55375505322445 96.0,332.55375505322445" stroke="black" fill="yellow"/>
<polygon points="96.0,332.55375505322445 128.0,332.55375505322445 112.0,304.8409421321224" stroke="black" fill="yellow"/>
<polygon points="64.0,387.9793808954285 96.0,387.9793808954285 80.0,360.26656797432645" stroke="black" fill="yellow"/>
<polygon points="80.0,360.26656797432645 64.0,332.55375505322445 48.0,360.26656797432645" stroke="black" fill="yellow"/>
<polygon points="48.0,360.26656797432645 32.0,387.9793808954285 64.0,387.9793808954285" stroke="black" fill="yellow"/>
<polygon points="48.0,415.6921938165305 32.0,387.9793808954285 16.0,415.6921938165305" stroke="black" fill="yellow"/>
<polygon points="16.0,415.6921938165305 0,443.40500673763256 32.0,443.40500673763256" stroke="black" fill="yellow"/>
<polygon points="32.0,443.40500673763256 64.0,443.40500673763256 48.0,415.6921938165305" stroke="black" fill="yellow"/>
<polygon points="80.0,415.6921938165305 64.0,443.40500673763256 96.0,443.40500673763256" stroke="black" fill="yellow"/>
<polygon points="96.0,443.40500673763256 128.0,443.40500673763256 112.0,415.6921938165305" stroke="black" fill="yellow"/>
<polygon points="112.0,415.6921938165305 96.0,387.9793808954285 80.0,415.6921938165305" stroke="black" fill="yellow"/>
<polygon points="176.0,415.6921938165305 160.0,387.9793808954285 144.0,415.6921938165305" stroke="black" fill="yellow"/>
<polygon points="144.0,415.6921938165305 128.0,443.40500673763256 160.0,443.40500673763256" stroke="black" fill="yellow"/>
<polygon points="160.0,443.40500673763256 192.0,443.40500673763256 176.0,415.6921938165305" stroke="black" fill="yellow"/>
<polygon points="208.0,415.6921938165305 192.0,443.40500673763256 224.0,443.40500673763256" stroke="black" fill="yellow"/>
<polygon points="224.0,443.40500673763256 256.0,443.40500673763256 240.0,415.6921938165305" stroke="black" fill="yellow"/>
<polygon points="240.0,415.6921938165305 224.0,387.9793808954285 208.0,415.6921938165305" stroke="black" fill="yellow"/>
<polygon points="192.0,387.9793808954285 224.0,387.9793808954285 208.0,360.26656797432645" stroke="black" fill="yellow"/>
<polygon points="208.0,360.26656797432645 192.0,332.55375505322445 176.0,360.26656797432645" stroke="black" fill="yellow"/>
<polygon points="176.0,360.26656797432645 160.0,387.9793808954285 192.0,387.9793808954285" stroke="black" fill="yellow"/>
<polygon points="320.0,387.9793808954285 352.0,387.9793808954285 336.0,360.26656797432645" stroke="black" fill="yellow"/>
<polygon points="336.0,360.26656797432645 320.0,332.55375505322445 304.0,360.26656797432645" stroke="black" fill="yellow"/>
<polygon points="304.0,360.26656797432645 288.0,387.9793808954285 320.0,387.9793808954285" stroke="black" fill="yellow"/>
<polygon points="304.0,415.6921938165305 288.0,387.9793808954285 272.0,415.6921938165305" stroke="black" fill="yellow"/>
<polygon points="272.0,415.6921938165305 256.0,443.40500673763256 288.0,443.40500673763256" stroke="black" fill="yellow"/>
<polygon points="288.0,443.40500673763256 320.0,443.40500673763256 304.0,415.6921938165305" stroke="black" fill="yellow"/>
<polygon points="336.0,415.6921938165305 320.0,443.40500673763256 352.0,443.40500673763256" stroke="black" fill="yellow"/>
<polygon points="352.0,443.40500673763256 384.0,443.40500673763256 368.0,415.6921938165305" stroke="black" fill="yellow"/>
<polygon points="368.0,415.6921938165305 352.0,387.9793808954285 336.0,415.6921938165305" stroke="black" fill="yellow"/>
<polygon points="432.0,415.6921938165305 416.0,387.9793808954285 400.0,415.6921938165305" stroke="black" fill="yellow"/>
<polygon points="400.0,415.6921938165305 384.0,443.40500673763256 416.0,443.40500673763256" stroke="black" fill="yellow"/>
<polygon points="416.0,443.40500673763256 448.0,443.40500673763256 432.0,415.6921938165305" stroke="black" fill="yellow"/>
<polygon points="464.0,415.6921938165305 448.0,443.40500673763256 480.0,443.40500673763256" stroke="black" fill="yellow"/>
<polygon points="480.0,443.40500673763256 512,443.40500673763256 496.0,415.6921938165305" stroke="black" fill="yellow"/>
<polygon points="496.0,415.6921938165305 480.0,387.9793808954285 464.0,415.6921938165305" stroke="black" fill="yellow"/>
<polygon points="448.0,387.9793808954285 480.0,387.9793808954285 464.0,360.26656797432645" stroke="black" fill="yellow"/>
<polygon points="464.0,360.26656797432645 448.0,332.55375505322445 432.0,360.26656797432645" stroke="black" fill="yellow"/>
<polygon points="432.0,360.26656797432645 416.0,387.9793808954285 448.0,387.9793808954285" stroke="black" fill="yellow"/>
<polygon points="400.0,304.8409421321224 384.0,332.55375505322445 416.0,332.55375505322445" stroke="black" fill="yellow"/>
<polygon points="416.0,332.55375505322445 448.0,332.55375505322445 432.0,304.8409421321224" stroke="black" fill="yellow"/>
<polygon points="432.0,304.8409421321224 416.0,277.12812921102034 400.0,304.8409421321224" stroke="black" fill="yellow"/>
<polygon points="384.0,277.12812921102034 416.0,277.12812921102034 400.0,249.4153162899183" stroke="black" fill="yellow"/>
<polygon points="400.0,249.4153162899183 384.0,221.70250336881628 368.0,249.4153162899183" stroke="black" fill="yellow"/>
<polygon points="368.0,249.4153162899183 352.0,277.12812921102034 384.0,277.12812921102034" stroke="black" fill="yellow"/>
<polygon points="368.0,304.8409421321224 352.0,277.12812921102034 336.0,304.8409421321224" stroke="black" fill="yellow"/>
<polygon points="336.0,304.8409421321224 320.0,332.55375505322445 352.0,332.55375505322445" stroke="black" fill="yellow"/>
<polygon points="352.0,332.55375505322445 384.0,332.55375505322445 368.0,304.8409421321224" stroke="black" fill="yellow"/>
<polygon points="304.0,193.98969044771425 288.0,166.27687752661222 272.0,193.98969044771425" stroke="black" fill="yellow"/>
<polygon points="272.0,193.98969044771425 256.0,221.70250336881628 288.0,221.70250336881628" stroke="black" fill="yellow"/>
<polygon points="288.0,221.70250336881628 320.0,221.70250336881628 304.0,193.98969044771425" stroke="black" fill="yellow"/>
<polygon points="336.0,193.98969044771425 320.0,221.70250336881628 352.0,221.70250336881628" stroke="black" fill="yellow"/>
<polygon points="352.0,221.70250336881628 384.0,221.70250336881628 368.0,193.98969044771425" stroke="black" fill="yellow"/>
<polygon points="368.0,193.98969044771425 352.0,166.27687752661222 336.0,193.98969044771425" stroke="black" fill="yellow"/>
<polygon points="320.0,166.27687752661222 352.0,166.27687752661222 336.0,138.56406460551017" stroke="black" fill="yellow"/>
<polygon points="336.0,138.56406460551017 320.0,110.85125168440811 304.0,138.56406460551017" stroke="black" fill="yellow"/>
<polygon points="304.0,138.56406460551017 288.0,166.27687752661222 320.0,166.27687752661222" stroke="black" fill="yellow"/>
<polygon points="272.0,83.13843876330611 256.0,110.85125168440811 288.0,110.85125168440811" stroke="black" fill="yellow"/>
<polygon points="288.0,110.85125168440811 320.0,110.85125168440811 304.0,83.13843876330611" stroke="black" fill="yellow"/>
<polygon points="304.0,83.13843876330611 288.0,55.425625842204056 272.0,83.13843876330611" stroke="black" fill="yellow"/>
<polygon points="256.0,55.425625842204056 288.0,55.425625842204056 272.0,27.712812921102" stroke="black" fill="yellow"/>
<polygon points="272.0,27.712812921102 256.0,0.0 240.0,27.712812921102" stroke="black" fill="yellow"/>
<polygon points="240.0,27.712812921102 224.0,55.425625842204056 256.0,55.425625842204056" stroke="black" fill="yellow"/>
<polygon points="240.0,83.13843876330611 224.0,55.425625842204056 208.0,83.13843876330611" stroke="black" fill="yellow"/>
<polygon points="208.0,83.13843876330611 192.0,110.85125168440811 224.0,110.85125168440811" stroke="black" fill="yellow"/>
<polygon points="224.0,110.85125168440811 256.0,110.85125168440811 240.0,83.13843876330611" stroke="black" fill="yellow"/>
<polygon points="192.0,166.27687752661222 224.0,166.27687752661222 208.0,138.56406460551017" stroke="black" fill="yellow"/>
<polygon points="208.0,138.56406460551017 192.0,110.85125168440811 176.0,138.56406460551017" stroke="black" fill="yellow"/>
<polygon points="176.0,138.56406460551017 160.0,166.27687752661222 192.0,166.27687752661222" stroke="black" fill="yellow"/>
<polygon points="176.0,193.98969044771425 160.0,166.27687752661222 144.0,193.98969044771425" stroke="black" fill="yellow"/>
<polygon points="144.0,193.98969044771425 128.0,221.70250336881628 160.0,221.70250336881628" stroke="black" fill="yellow"/>
<polygon points="160.0,221.70250336881628 192.0,221.70250336881628 176.0,193.98969044771425" stroke="black" fill="yellow"/>
<polygon points="208.0,193.98969044771425 192.0,221.70250336881628 224.0,221.70250336881628" stroke="black" fill="yellow"/>
<polygon points="224.0,221.70250336881628 256.0,221.70250336881628 240.0,193.98969044771425" stroke="black" fill="yellow"/>
<polygon points="240.0,193.98969044771425 224.0,166.27687752661222 208.0,193.98969044771425" stroke="black" fill="yellow"/>
</g>
</svg>
